# xmcd
#
# Track frame offsets:
#   150
#   17109
#   29369
#   46120
#   62872
#   80402
#   95284
#   115952
#   133294
#   151151
#   167519
#   185146
#   203480
#
# Disc length: 2963 seconds
#
# Revision: 0
# Processed by: cddbd v1.5.1PL0 Copyright (c) Steve Scherf et al.
# Submitted via: uFREEDB ActiveX Control 1.5
#
DISCID=a60b910d
DTITLE=Gustavo Lins - Gustavo Lins 2
DYEAR=2004
DGENRE=Blues
TTITLE0=Pára de fazer charminho
TTITLE1=Daqui você não passa
TTITLE2=Máquina do tempo
TTITLE3=Tela especial
TTITLE4=Só de olhar
TTITLE5=Menina mimada
TTITLE6=Minha princesa
TTITLE7=Deixa eu te querer
TTITLE8=Sozinho em casa
TTITLE9=Não basta
TTITLE10=Coisas de compositor
TTITLE11=Planeta amor
TTITLE12=Seu fã.
EXTD=
EXTT0=
EXTT1=
EXTT2=
EXTT3=
EXTT4=
EXTT5=
EXTT6=
EXTT7=
EXTT8=
EXTT9=
EXTT10=
EXTT11=
EXTT12=
PLAYORDER=
